<?xml version="1.0" encoding="UTF-8"?>
<svg xmlns="http://www.w3.org/2000/svg"
     viewBox="0 0 100 100"
     preserveAspectRatio="xMidYMid meet">
  <g id="segments" fill="currentColor">
    <path id="seg-1" d="M50,50 L50,5 A45,45 0 0,1 73.53,26.47 Z"/>
    <path id="seg-2" d="M50,50 L73.53,26.47 A45,45 0 0,1 89.39,50 Z"/>
    <path id="seg-3" d="M50,50 L89.39,50 A45,45 0 0,1 73.53,73.53 Z"/>
    <path id="seg-4" d="M50,50 L73.53,73.53 A45,45 0 0,1 50,95 Z"/>
    <path id="seg-5" d="M50,50 L50,95 A45,45 0 0,1 26.47,73.53 Z"/>
    <path id="seg-6" d="M50,50 L26.47,73.53 A45,45 0 0,1 10.61,50 Z"/>
    <path id="seg-7" d="M50,50 L10.61,50 A45,45 0 0,1 26.47,26.47 Z"/>
    <path id="seg-8" d="M50,50 L26.47,26.47 A45,45 0 0,1 50,5 Z"/>
    <path id="seg-9" d="M50,50 L50,5 A45,45 0 0,1 73.53,26.47 Z"/> <!-- repeats for symmetry -->
    <path id="seg-10" d="M50,50 L73.53,26.47 A45,45 0 0,1 89.39,50 Z"/> <!-- repeats for symmetry -->
  </g>
  <circle cx="50" cy="50" r="12" fill="none" stroke="currentColor" stroke-width="2"/>
</svg>
