<?xml version="1.0" encoding="UTF-8"?>
<svg xmlns="http://www.w3.org/2000/svg"
     viewBox="0 0 100 100"
     preserveAspectRatio="xMidYMid meet">
  <g id="segments" fill="currentColor">
    <path id="seg-1" d="M50,50 L50,5 A45,45 0 0,1 85,15 Z"/>
    <path id="seg-2" d="M50,50 L85,15 A45,45 0 0,1 95,50 Z"/>
    <path id="seg-3" d="M50,50 L95,50 A45,45 0 0,1 85,85 Z"/>
    <path id="seg-4" d="M50,50 L85,85 A45,45 0 0,1 50,95 Z"/>
    <path id="seg-5" d="M50,50 L50,95 A45,45 0 0,1 15,85 Z"/>
    <path id="seg-6" d="M50,50 L15,85 A45,45 0 0,1 5,50 Z"/>
  </g>
  <circle cx="50" cy="50" r="18" fill="none" stroke="currentColor" stroke-width="2"/>
</svg>
