<?xml version="1.0" encoding="UTF-8"?>
<svg xmlns="http://www.w3.org/2000/svg"
     viewBox="0 0 100 100"
     preserveAspectRatio="xMidYMid meet">
  <g id="segments" fill="currentColor">
    <path id="seg-1" d="M50,50 L50,5 A45,45 0 0,1 79.39,20.61 Z"/>
    <path id="seg-2" d="M50,50 L79.39,20.61 A45,45 0 0,1 94.39,50 Z"/>
    <path id="seg-3" d="M50,50 L94.39,50 A45,45 0 0,1 79.39,79.39 Z"/>
    <path id="seg-4" d="M50,50 L79.39,79.39 A45,45 0 0,1 50,95 Z"/>
    <path id="seg-5" d="M50,50 L50,95 A45,45 0 0,1 20.61,79.39 Z"/>
    <path id="seg-6" d="M50,50 L20.61,79.39 A45,45 0 0,1 5.61,50 Z"/>
    <path id="seg-7" d="M50,50 L5.61,50 A45,45 0 0,1 20.61,20.61 Z"/>
    <path id="seg-8" d="M50,50 L20.61,20.61 A45,45 0 0,1 50,5 Z"/>
  </g>
  <circle cx="50" cy="50" r="14" fill="none" stroke="currentColor" stroke-width="2"/>
</svg>
